<svg xmlns="http://www.w3.org/2000/svg" width="1080" height="1920"><rect width="1080" height="1920" fill="#071824"/><rect x="45" y="45" width="990" height="100" rx="28" fill="#102735"/><text x="90" y="110" fill="#fff" font-family="Arial" font-size="42" font-weight="700">MaintenPro</text><text x="55" y="230" fill="#ff9b25" font-family="Arial" font-size="24" font-weight="700">AGENDA</text><text x="55" y="305" fill="#fff" font-family="Arial" font-size="58" font-weight="700">Próximos mantenimientos</text><g font-family="Arial"><line x1="120" y1="390" x2="120" y2="1350" stroke="#10bdcb" stroke-width="6"/><circle cx="120" cy="465" r="22" fill="#ff5f68"/><text x="175" y="450" fill="#ff9b25" font-size="25" font-weight="700">HOY</text><text x="175" y="500" fill="#fff" font-size="36" font-weight="700">Lubricación del compresor</text><text x="175" y="545" fill="#94adba" font-size="25">Compresor principal · Alberto</text><circle cx="120" cy="690" r="22" fill="#ff9b25"/><text x="175" y="675" fill="#ff9b25" font-size="25" font-weight="700">7 AGO</text><text x="175" y="725" fill="#fff" font-size="36" font-weight="700">Revisión bomba lobular</text><text x="175" y="770" fill="#94adba" font-size="25">Línea gominola · José Miguel</text><circle cx="120" cy="915" r="22" fill="#10bdcb"/><text x="175" y="900" fill="#ff9b25" font-size="25" font-weight="700">12 AGO</text><text x="175" y="950" fill="#fff" font-size="36" font-weight="700">Limpieza del evaporador</text><text x="175" y="995" fill="#94adba" font-size="25">Túnel de frío · Mario</text><circle cx="120" cy="1140" r="22" fill="#10bdcb"/><text x="175" y="1125" fill="#ff9b25" font-size="25" font-weight="700">20 AGO</text><text x="175" y="1175" fill="#fff" font-size="36" font-weight="700">Inspección de seguridad</text><text x="175" y="1220" fill="#94adba" font-size="25">Reactor 500 L · Encargado</text></g><rect x="55" y="1435" width="970" height="230" rx="36" fill="#12384b" stroke="#2a6075"/><text x="100" y="1515" fill="#fff" font-family="Arial" font-size="40" font-weight="700">Nunca olvides un preventivo</text><text x="100" y="1575" fill="#b4ccd6" font-family="Arial" font-size="27">Planifica por fecha y consulta los vencimientos.</text><rect x="100" y="1610" width="260" height="40" rx="12" fill="#174c3e"/><text x="230" y="1638" text-anchor="middle" fill="#79e9b0" font-family="Arial" font-size="20">AVISOS CONFIGURABLES</text></svg>
